#N canvas 484 188 915 578 12;
#X obj 252 432 oscparse;
#X obj 252 460 list trim;
#X obj 255 39 bng 15 250 50 0 empty empty empty 17 7 0 10 #fcfcfc #000000
#000000;
#X obj 255 63 oscformat /server/connect;
#X obj 255 90 list prepend send;
#X obj 255 119 list trim;
#X obj 31 390 netsend -u -b;
#X msg 26 45 connect 127.0.0.1 32000;
#X msg 39 78 disconnect 127.0.0.1 32000;
#X obj 252 402 netreceive -u -b 12000;
#X obj 454 37 bng 15 250 50 0 empty empty empty 17 7 0 10 #fcfcfc #000000
#000000;
#X obj 454 88 list prepend send;
#X obj 454 117 list trim;
#X obj 454 61 oscformat /server/disconnect;
#X obj 252 266 bng 15 250 50 0 empty empty empty 17 7 0 10 #fcfcfc
#000000 #000000;
#X obj 252 317 list prepend send;
#X obj 252 346 list trim;
#X obj 252 290 oscformat /bang;
#X obj 252 486 route bang;
#X obj 252 518 bng 15 250 50 0 empty empty empty 17 7 0 10 #fcfcfc
#000000 #000000;
#X connect 0 0 1 0;
#X connect 1 0 18 0;
#X connect 2 0 3 0;
#X connect 3 0 4 0;
#X connect 4 0 5 0;
#X connect 5 0 6 0;
#X connect 7 0 6 0;
#X connect 8 0 6 0;
#X connect 9 0 0 0;
#X connect 10 0 13 0;
#X connect 11 0 12 0;
#X connect 12 0 6 0;
#X connect 13 0 11 0;
#X connect 14 0 17 0;
#X connect 15 0 16 0;
#X connect 16 0 6 0;
#X connect 17 0 15 0;
#X connect 18 0 19 0;
